<?xml version="1.0" encoding="utf-8"?>
<!-- Generator: Adobe Illustrator 27.3.1, SVG Export Plug-In . SVG Version: 6.00 Build 0)  -->
<svg version="1.1" id="Layer_1" xmlns="http://www.w3.org/2000/svg" xmlns:xlink="http://www.w3.org/1999/xlink" x="0px" y="0px"
	 viewBox="0 0 422 366" style="enable-background:new 0 0 422 366;" xml:space="preserve">
<style type="text/css">
	.st0{fill:#FFFFFF;}
	.st1{opacity:0.8;fill:none;stroke:#FFFFFF;stroke-miterlimit:10;}
	.st2{opacity:0.55;fill:#D6D6D7;}
	.st3{fill:#FFFFFF;stroke:#000000;stroke-miterlimit:10;}
	.st4{fill:#68CA44;stroke:#231F20;stroke-miterlimit:10;}
	.st5{fill:#FFFFFF;stroke:#231F20;stroke-miterlimit:10;}
	.st6{fill:#FFFFFF;stroke:#231F20;stroke-width:0.25;stroke-miterlimit:10;}
	.st7{opacity:0.89;}
	.st8{stroke:#231F20;stroke-width:3;stroke-miterlimit:10;}
	.st9{fill:#FFFFFF;stroke:#231F20;stroke-width:3;stroke-miterlimit:10;}
	.st10{fill:none;stroke:#231F20;stroke-width:2;stroke-miterlimit:10;}
	.st11{fill:#231F20;stroke:#231F20;stroke-miterlimit:10;}
	.st12{opacity:0.14;fill:#FFFFFF;stroke:#231F20;stroke-width:0.25;stroke-miterlimit:10;}
	.st13{fill:#FFFFFF;stroke:#000000;stroke-width:0.5;stroke-miterlimit:10;}
	.st14{fill:#68CA44;stroke:#231F20;stroke-width:0.5;stroke-miterlimit:10;}
	.st15{fill:#FFFFFF;stroke:#231F20;stroke-width:0.5;stroke-miterlimit:10;}
</style>
<circle class="st2" cx="218" cy="170" r="114"/>
<ellipse class="st13" cx="205.32" cy="162.46" rx="25.76" ry="26.1"/>
<polygon class="st14" points="187.8,152.15 203.6,163.14 204.49,163.14 235.2,137.04 237.17,137.04 238.63,137.73 238.63,138.67 
	238.63,139.7 237.94,140.47 203.6,178.25 202.76,178.25 185.05,155.59 185.74,153.53 186.43,152.84 "/>
<polygon class="st13" points="253.06,190.62 253.06,166.55 218.4,166.55 218.4,213.39 244.65,213.39 253.06,205.41 "/>
<path class="st13" d="M244.81,213.29c0,0.69-1-8.24-1-8.24h8.8c0.16,0,0.25,0.2,0.13,0.31L244.81,213.29z"/>
<g>
	<g>
		<path d="M224.02,177.29c6.84,0,13.68,0,20.52,0c0.97,0,1.93,0,2.9,0c0.97,0,0.97-1.5,0-1.5c-6.84,0-13.68,0-20.52,0
			c-0.97,0-1.93,0-2.9,0C223.06,175.79,223.06,177.29,224.02,177.29L224.02,177.29z"/>
	</g>
</g>
<g>
	<g>
		<path d="M224.55,183.13c6.68,0,13.37,0,20.06,0c0.95,0,1.89,0,2.84,0c0.97,0,0.97-1.5,0-1.5c-6.69,0-13.37,0-20.06,0
			c-0.95,0-1.89,0-2.84,0C223.58,181.63,223.58,183.13,224.55,183.13L224.55,183.13z"/>
	</g>
</g>
<g>
	<g>
		<path d="M224.02,188.28c6.84,0,13.68,0,20.52,0c0.97,0,1.93,0,2.9,0c0.97,0,0.97-1.5,0-1.5c-6.84,0-13.68,0-20.52,0
			c-0.97,0-1.93,0-2.9,0C223.06,186.78,223.06,188.28,224.02,188.28L224.02,188.28z"/>
	</g>
</g>
<g>
	<g>
		<path d="M224.55,194.12c6.68,0,13.37,0,20.06,0c0.95,0,1.89,0,2.84,0c0.97,0,0.97-1.5,0-1.5c-6.69,0-13.37,0-20.06,0
			c-0.95,0-1.89,0-2.84,0C223.58,192.62,223.58,194.12,224.55,194.12L224.55,194.12z"/>
	</g>
</g>
<g>
	<g>
		<path d="M224.02,199.27c6.84,0,13.68,0,20.52,0c0.97,0,1.93,0,2.9,0c0.97,0,0.97-1.5,0-1.5c-6.84,0-13.68,0-20.52,0
			c-0.97,0-1.93,0-2.9,0C223.06,197.77,223.06,199.27,224.02,199.27L224.02,199.27z"/>
	</g>
</g>
</svg>
