<?xml version="1.0" encoding="utf-8"?>
<!-- Generator: Adobe Illustrator 27.3.1, SVG Export Plug-In . SVG Version: 6.00 Build 0)  -->
<svg version="1.1" id="Layer_1" xmlns="http://www.w3.org/2000/svg" xmlns:xlink="http://www.w3.org/1999/xlink" x="0px" y="0px"
	 viewBox="0 0 422 366" style="enable-background:new 0 0 422 366;" xml:space="preserve">
<style type="text/css">
	.st0{fill:#FFFFFF;}
	.st1{opacity:0.8;fill:none;stroke:#FFFFFF;stroke-miterlimit:10;}
	.st2{opacity:0.55;fill:#D6D6D7;}
	.st3{fill:#FFFFFF;stroke:#000000;stroke-miterlimit:10;}
	.st4{fill:#68CA44;stroke:#231F20;stroke-miterlimit:10;}
	.st5{fill:#FFFFFF;stroke:#231F20;stroke-miterlimit:10;}
	.st6{fill:#FFFFFF;stroke:#231F20;stroke-width:0.25;stroke-miterlimit:10;}
	.st7{opacity:0.89;}
	.st8{stroke:#231F20;stroke-width:3;stroke-miterlimit:10;}
	.st9{fill:#FFFFFF;stroke:#231F20;stroke-width:3;stroke-miterlimit:10;}
	.st10{fill:none;stroke:#231F20;stroke-width:2;stroke-miterlimit:10;}
	.st11{fill:#231F20;stroke:#231F20;stroke-miterlimit:10;}
	.st12{opacity:0.14;fill:#FFFFFF;stroke:#231F20;stroke-width:0.25;stroke-miterlimit:10;}
	.st13{fill:#FFFFFF;stroke:#000000;stroke-width:0.5;stroke-miterlimit:10;}
	.st14{fill:#FFFFFF;stroke:#000000;stroke-width:0.75;stroke-miterlimit:10;}
	.st15{opacity:0.58;}
	.st16{font-family:'MyriadPro-Regular';}
	.st17{font-size:58.5335px;}
	.st18{fill:#FFFFFF;stroke:#231F20;stroke-width:0.5;stroke-miterlimit:10;}
</style>
<circle class="st2" cx="217.06" cy="185.74" r="114"/>
<text transform="matrix(0.6282 0 0 1 160.4346 203.8498)" class="st15 st16 st17">{           }</text>
<g>
	<rect x="207.23" y="150.39" class="st18" width="33.3" height="73.67"/>
	<rect x="211.77" y="156.44" class="st18" width="6.56" height="8.58"/>
	<rect x="228.42" y="156.44" class="st18" width="5.55" height="8.58"/>
	<rect x="228.42" y="172.59" class="st18" width="5.55" height="8.58"/>
	<rect x="228.42" y="187.73" class="st18" width="5.55" height="9.08"/>
</g>
<g>
	<polygon class="st18" points="193.86,176.88 193.86,172.19 213.28,172.19 213.28,176.38 218.37,176.38 218.37,224.02 
		189.09,224.02 189.09,176.81 	"/>
	<rect x="193.35" y="182.43" class="st18" width="8.07" height="12.62"/>
	<rect x="206.22" y="182.18" class="st18" width="8.58" height="13.12"/>
	<rect x="193.1" y="201.86" class="st18" width="8.07" height="12.62"/>
	<rect x="206.22" y="201.86" class="st18" width="8.58" height="12.62"/>
</g>
<line class="st18" x1="219.34" y1="142.31" x2="219.34" y2="150.39"/>
<line class="st18" x1="227.75" y1="145.62" x2="227.75" y2="150.08"/>
</svg>
