<?xml version="1.0" encoding="utf-8"?>
<!-- Generator: Adobe Illustrator 27.3.1, SVG Export Plug-In . SVG Version: 6.00 Build 0)  -->
<svg version="1.1" id="Layer_1" xmlns="http://www.w3.org/2000/svg" xmlns:xlink="http://www.w3.org/1999/xlink" x="0px" y="0px"
	 viewBox="0 0 422 366" style="enable-background:new 0 0 422 366;" xml:space="preserve">
<style type="text/css">
	.st0{fill:#FFFFFF;}
	.st1{opacity:0.8;fill:none;stroke:#FFFFFF;stroke-miterlimit:10;}
	.st2{opacity:0.55;fill:#D6D6D7;}
	.st3{fill:#FFFFFF;stroke:#000000;stroke-miterlimit:10;}
	.st4{fill:#68CA44;stroke:#231F20;stroke-miterlimit:10;}
	.st5{fill:#FFFFFF;stroke:#231F20;stroke-miterlimit:10;}
	.st6{fill:#FFFFFF;stroke:#231F20;stroke-width:0.25;stroke-miterlimit:10;}
	.st7{opacity:0.89;}
	.st8{stroke:#231F20;stroke-width:3;stroke-miterlimit:10;}
	.st9{fill:#FFFFFF;stroke:#231F20;stroke-width:3;stroke-miterlimit:10;}
	.st10{fill:none;stroke:#231F20;stroke-width:2;stroke-miterlimit:10;}
	.st11{fill:#231F20;stroke:#231F20;stroke-miterlimit:10;}
	.st12{opacity:0.14;fill:#FFFFFF;stroke:#231F20;stroke-width:0.25;stroke-miterlimit:10;}
	.st13{fill:#FFFFFF;stroke:#000000;stroke-width:0.5;stroke-miterlimit:10;}
	.st14{fill:#FFFFFF;stroke:#000000;stroke-width:0.75;stroke-miterlimit:10;}
</style>
<circle class="st2" cx="211.06" cy="170.74" r="114"/>
<g>
	<polygon class="st13" points="163.17,151.58 154.46,155.89 147.35,178.91 188.34,178.91 187.62,171.71 182.59,155.89 
		173.24,152.29 173.24,159.49 164.61,159.49 164.61,151.58 	"/>
	<circle class="st13" cx="251.28" cy="141.87" r="11.15"/>
	<circle class="st13" cx="168.56" cy="138.27" r="11.15"/>
	<polygon class="st13" points="245.88,155.17 234.37,166.68 220.51,166.68 227.18,174.59 240.13,174.59 242.29,172.43 
		242.29,178.91 228.62,186.1 228.62,213.43 239.15,213.43 240.13,190.82 259.55,190.41 259.55,161.3 256.3,155.17 	"/>
	<path class="st13" d="M266.74,160.21c-0.72,0-4.32,32.76-4.32,32.76h-19.7v5.28l10.35,0.08v7.19h-3.86l-3.33,5.75h-2.16l-0.72,2.16
		h3.6l3.6-4.32h3.6l0.72,4.32h3.71l0.6-4.32h5.75l3.32,4.32h3.08l0.08-2.16h-2.16l-2.88-5.75l-6.47-0.35v-6.71l8.63-0.14l2.88-38.12
		H266.74z"/>
	<polygon class="st13" points="198.83,155.89 196.25,156.61 203.45,178.19 224.64,178.19 224.64,174.64 205.07,174.89 	"/>
	<polygon class="st13" points="156.7,185.38 179.71,185.71 179.71,213.91 169.39,213.91 169.64,195.45 169.64,192.57 167.48,192.57 
		167.48,213.43 156.7,213.5 	"/>
	<rect x="136.56" y="179.63" class="st13" width="92.06" height="4.32"/>
	<polygon class="st13" points="155.98,161.64 157.41,179.63 179.71,179.63 181.15,161.64 	"/>
	<rect x="166.77" y="154.45" class="st13" width="3.6" height="5.03"/>
	<rect x="166.05" y="150.86" class="st13" width="5.03" height="2.88"/>
</g>
</svg>
